<svg width="144" height="45" viewBox="0 0 144 45" fill="none" xmlns="http://www.w3.org/2000/svg">
<g clip-path="url(#clip0)">
<path d="M71.6129 28.6195L73.1426 24.0587H80.3662L81.8959 28.6195H85.9468L79.1198 9.92308H74.4457L67.6187 28.6195H71.6129ZM79.403 21.1692H74.1341L75.9187 15.8436L76.7119 13.0675H76.7686L77.6184 15.9003L79.403 21.1692ZM94.5301 28.9028C96.2487 28.9028 97.6698 28.5156 98.7935 27.7413C99.9171 26.967 100.64 25.9283 100.961 24.6252L97.4479 23.4921C97.1269 25.1729 96.1448 26.0133 94.5018 26.0133C93.4065 26.0133 92.5613 25.6403 91.9665 24.8944C91.3716 24.1484 91.0741 23.0389 91.0741 21.5658C91.0741 20.0928 91.3669 18.9738 91.9523 18.209C92.5377 17.4441 93.3781 17.0617 94.4735 17.0617C96.0032 17.0617 96.938 17.921 97.2779 19.6395L100.904 18.3365C100.545 17.09 99.8227 16.0844 98.7368 15.3195C97.6509 14.5547 96.2109 14.1723 94.4168 14.1723C92.9815 14.1723 91.721 14.465 90.635 15.0504C89.5491 15.6359 88.704 16.481 88.0997 17.5858C87.4954 18.6906 87.1932 20.0078 87.1932 21.5375C87.1932 23.0672 87.4954 24.3845 88.0997 25.4892C88.704 26.594 89.5586 27.4391 90.6634 28.0246C91.7682 28.61 93.0571 28.9028 94.5301 28.9028ZM107.901 28.9028C108.807 28.9028 109.676 28.7233 110.507 28.3645C111.338 28.0057 111.971 27.5052 112.405 26.8631C112.613 27.5052 113.014 27.9963 113.609 28.3362C114.204 28.6761 114.917 28.8555 115.748 28.8744C116.484 28.8744 117.098 28.7517 117.589 28.5062L117.816 26.0983C117.532 26.1927 117.23 26.2399 116.909 26.2399C116.229 26.2399 115.889 25.8811 115.889 25.1635V19.4129C115.889 17.7132 115.332 16.4149 114.218 15.5178C113.104 14.6208 111.593 14.1723 109.686 14.1723C107.891 14.1723 106.447 14.5405 105.351 15.2771C104.256 16.0136 103.538 17.0239 103.198 18.3081L106.513 19.3279C106.966 17.7793 107.967 17.005 109.516 17.005C110.271 17.005 110.88 17.2364 111.343 17.6991C111.805 18.1618 112.037 18.7897 112.037 19.5829V20.1211L107.164 21.1126C105.88 21.377 104.903 21.8444 104.232 22.5148C103.562 23.1852 103.227 24.0398 103.227 25.0785C103.227 26.306 103.638 27.2503 104.459 27.9113C105.281 28.5723 106.428 28.9028 107.901 28.9028ZM108.892 26.155C108.382 26.155 107.958 26.0275 107.618 25.7725C107.278 25.5176 107.108 25.1635 107.108 24.7102C107.108 24.2381 107.259 23.8887 107.561 23.6621C107.863 23.4355 108.364 23.2561 109.062 23.1239L112.037 22.529V23.4071C112.037 24.3703 111.739 25.069 111.144 25.5034C110.55 25.9378 109.799 26.155 108.892 26.155ZM124.133 28.9028C124.605 28.9028 125.086 28.8508 125.577 28.747C126.068 28.6431 126.465 28.4967 126.767 28.3079L127.107 25.7584C126.786 25.8717 126.522 25.9472 126.314 25.985C126.106 26.0228 125.842 26.0416 125.521 26.0416C124.992 26.0416 124.614 25.9047 124.388 25.6309C124.161 25.357 124.048 24.8991 124.048 24.257V8.25174H120.167V24.6819C120.167 26.155 120.483 27.2267 121.116 27.8971C121.748 28.5675 122.754 28.9028 124.133 28.9028ZM133.339 28.9028C134.246 28.9028 135.115 28.7233 135.945 28.3645C136.776 28.0057 137.409 27.5052 137.843 26.8631C138.051 27.5052 138.452 27.9963 139.047 28.3362C139.642 28.6761 140.355 28.8555 141.186 28.8744C141.923 28.8744 142.536 28.7517 143.027 28.5062L143.254 26.0983C142.971 26.1927 142.669 26.2399 142.348 26.2399C141.668 26.2399 141.328 25.8811 141.328 25.1635V19.4129C141.328 17.7132 140.771 16.4149 139.656 15.5178C138.542 14.6208 137.031 14.1723 135.124 14.1723C133.33 14.1723 131.885 14.5405 130.79 15.2771C129.694 16.0136 128.977 17.0239 128.637 18.3081L131.951 19.3279C132.404 17.7793 133.405 17.005 134.954 17.005C135.709 17.005 136.318 17.2364 136.781 17.6991C137.244 18.1618 137.475 18.7897 137.475 19.5829V20.1211L132.603 21.1126C131.319 21.377 130.341 21.8444 129.671 22.5148C129 23.1852 128.665 24.0398 128.665 25.0785C128.665 26.306 129.076 27.2503 129.897 27.9113C130.719 28.5723 131.866 28.9028 133.339 28.9028ZM134.331 26.155C133.821 26.155 133.396 26.0275 133.056 25.7725C132.716 25.5176 132.546 25.1635 132.546 24.7102C132.546 24.2381 132.697 23.8887 132.999 23.6621C133.302 23.4355 133.802 23.2561 134.501 23.1239L137.475 22.529V23.4071C137.475 24.3703 137.178 25.069 136.583 25.5034C135.988 25.9378 135.237 26.155 134.331 26.155Z" fill="black"/>
<path d="M35.5142 33.0524C33.0827 32.3433 30.5613 31.9901 28.0285 32.0039C23.8723 31.9941 19.7772 33.004 16.1022 34.9453L18.4817 30.9161L20.5929 27.3379L26.293 17.6193L31.6604 26.565L22.8221 11.8083L13.3076 28.0285L3.79297 44.4885H10.674C14.9775 40.6725 20.513 38.5368 26.2644 38.4734C32.5693 38.4484 38.2695 40.7385 42.3666 44.4813L35.5142 33.0524Z" fill="url(#paint0_linear)"/>
<path d="M22.9903 0.0250549L11.4934 19.5087L0 39.003L1.89648 41.6294L3.79295 44.4921L13.3075 28.0321L22.8221 11.8083L31.6425 26.5721C30.3839 26.4056 29.1155 26.3243 27.846 26.3288C25.3947 26.3352 22.9553 26.6697 20.5929 27.3236L18.4817 30.9018L16.1022 34.9453C19.7729 33.0063 23.8628 31.9964 28.0142 32.0039C30.5469 31.9901 33.0684 32.3433 35.4999 33.0524L42.3379 44.4813H49.6125L22.9903 0.0250549Z" fill="url(#paint1_linear)"/>
<path d="M22.9902 0.0250478L49.6268 44.4813L53.0011 38.7919L29.678 0L22.9902 0.0250478Z" fill="url(#paint2_linear)"/>
</g>
<defs>
<linearGradient id="paint0_linear" x1="14.4132" y1="19.5455" x2="22.4278" y2="45.7608" gradientUnits="userSpaceOnUse">
<stop offset="0.39" stop-color="#FF9373"/>
<stop offset="0.51" stop-color="#FE8F73"/>
<stop offset="0.62" stop-color="#FB8373"/>
<stop offset="0.73" stop-color="#F77073"/>
<stop offset="0.83" stop-color="#F15472"/>
<stop offset="0.94" stop-color="#E93172"/>
<stop offset="1" stop-color="#E41A72"/>
</linearGradient>
<linearGradient id="paint1_linear" x1="49.6268" y1="22.2532" x2="4.29033" y2="22.2532" gradientUnits="userSpaceOnUse">
<stop offset="0.09" stop-color="#FF9373"/>
<stop offset="0.15" stop-color="#FD8A73"/>
<stop offset="0.55" stop-color="#F04E72"/>
<stop offset="0.85" stop-color="#E72872"/>
<stop offset="1" stop-color="#E41A72"/>
</linearGradient>
<linearGradient id="paint2_linear" x1="49.7592" y1="22.2389" x2="31.5136" y2="22.2389" gradientUnits="userSpaceOnUse">
<stop stop-color="#FF9373"/>
<stop offset="1" stop-color="#E41A72"/>
</linearGradient>
<clipPath id="clip0">
<rect width="144" height="44.8941" fill="white"/>
</clipPath>
</defs>
</svg>
