<svg width="507" height="89" viewBox="0 0 507 89" fill="none" xmlns="http://www.w3.org/2000/svg">
<path d="M48.1842 43.6159C48.1842 47.2755 47.5054 50.3744 46.1478 52.9125C44.7902 55.3916 42.9604 57.3984 40.6583 58.9331C38.3563 60.4678 35.7001 61.5893 32.6898 62.2976C29.6795 63.0059 26.5511 63.3601 23.3047 63.3601H15.7789V87H0.638687V24.3144H23.6588C27.0824 24.3144 30.2698 24.6685 33.2211 25.3768C36.2314 26.0261 38.8285 27.1181 41.0125 28.6528C43.2555 30.1284 44.9967 32.1058 46.2363 34.5849C47.5349 37.005 48.1842 40.0153 48.1842 43.6159ZM33.044 43.7044C33.044 42.2288 32.7488 41.0187 32.1586 40.0743C31.5683 39.1299 30.7715 38.3921 29.768 37.8608C28.7646 37.3296 27.6136 36.9754 26.315 36.7984C25.0755 36.6213 23.7769 36.5327 22.4193 36.5327H15.7789V51.3188H22.1537C23.5703 51.3188 24.9279 51.2007 26.2265 50.9646C27.525 50.7285 28.6761 50.3153 29.6795 49.7251C30.742 49.1348 31.5683 48.3675 32.1586 47.423C32.7488 46.4196 33.044 45.1801 33.044 43.7044Z" fill="#E6007A"/>
<path d="M98.8147 64.7767C98.8147 68.3773 98.1654 71.6532 96.8668 74.6045C95.5682 77.4968 93.7974 79.9759 91.5545 82.0418C89.3115 84.0487 86.7143 85.6129 83.763 86.7344C80.8117 87.8559 77.6538 88.4166 74.2893 88.4166C70.9839 88.4166 67.826 87.8559 64.8157 86.7344C61.8644 85.6129 59.2672 84.0487 57.0242 82.0418C54.8403 79.9759 53.099 77.4968 51.8004 74.6045C50.5019 71.6532 49.8526 68.3773 49.8526 64.7767C49.8526 61.1761 50.5019 57.9297 51.8004 55.0374C53.099 52.1451 54.8403 49.6956 57.0242 47.6887C59.2672 45.6818 61.8644 44.1471 64.8157 43.0846C67.826 42.0222 70.9839 41.4909 74.2893 41.4909C77.6538 41.4909 80.8117 42.0222 83.763 43.0846C86.7143 44.1471 89.3115 45.6818 91.5545 47.6887C93.7974 49.6956 95.5682 52.1451 96.8668 55.0374C98.1654 57.9297 98.8147 61.1761 98.8147 64.7767ZM84.8255 64.7767C84.8255 63.3601 84.5894 61.973 84.1172 60.6154C83.645 59.2578 82.9662 58.0773 82.0808 57.0738C81.1954 56.0113 80.1034 55.1555 78.8048 54.5062C77.5063 53.8569 76.0011 53.5322 74.2893 53.5322C72.5776 53.5322 71.0724 53.8569 69.7738 54.5062C68.4753 55.1555 67.3833 56.0113 66.4979 57.0738C65.6715 58.0773 65.0223 59.2578 64.55 60.6154C64.1369 61.973 63.9303 63.3601 63.9303 64.7767C63.9303 66.1933 64.1369 67.5804 64.55 68.938C65.0223 70.2956 65.7011 71.5352 66.5864 72.6567C67.4718 73.7192 68.5638 74.575 69.8624 75.2243C71.161 75.8736 72.6661 76.1982 74.3779 76.1982C76.0896 76.1982 77.5948 75.8736 78.8934 75.2243C80.1919 74.575 81.2839 73.7192 82.1693 72.6567C83.0547 71.5352 83.704 70.2956 84.1172 68.938C84.5894 67.5804 84.8255 66.1933 84.8255 64.7767Z" fill="#E6007A"/>
<path d="M108.185 87V20.0645H122.883V87H108.185Z" fill="#E6007A"/>
<path d="M181.748 87H163.775L149.343 65.8392H149.077V87H134.468V20.0645H149.077V60.7924H149.343L163.42 42.9076H181.04L164.04 62.8288L181.748 87Z" fill="#E6007A"/>
<path d="M212.548 67.787H210.689C209.095 67.787 207.472 67.8756 205.819 68.0527C204.225 68.1707 202.779 68.4363 201.481 68.8495C200.241 69.2627 199.208 69.8825 198.382 70.7088C197.555 71.4762 197.142 72.5091 197.142 73.8077C197.142 74.634 197.319 75.3424 197.673 75.9326C198.087 76.5229 198.588 76.9951 199.179 77.3493C199.769 77.7034 200.448 77.969 201.215 78.1461C201.982 78.2642 202.72 78.3232 203.428 78.3232C206.38 78.3232 208.623 77.5263 210.157 75.9326C211.751 74.2799 212.548 72.0664 212.548 69.2922V67.787ZM185.898 48.9282C188.495 46.4491 191.505 44.5898 194.929 43.3503C198.411 42.1107 201.953 41.4909 205.553 41.4909C209.272 41.4909 212.4 41.9631 214.938 42.9076C217.536 43.7929 219.631 45.2096 221.225 47.1574C222.818 49.0463 223.969 51.4663 224.678 54.4176C225.445 57.3099 225.829 60.7629 225.829 64.7767V87H212.548V82.3074H212.282C211.161 84.1372 209.449 85.5539 207.147 86.5573C204.904 87.5608 202.454 88.0625 199.798 88.0625C198.028 88.0625 196.198 87.8264 194.309 87.3542C192.42 86.882 190.679 86.1146 189.085 85.0521C187.55 83.9897 186.281 82.5731 185.278 80.8023C184.274 79.0315 183.773 76.8475 183.773 74.2504C183.773 71.063 184.629 68.4953 186.34 66.5475C188.111 64.5996 190.354 63.0945 193.069 62.032C195.844 60.9695 198.913 60.2612 202.277 59.9071C205.642 59.5529 208.918 59.3758 212.105 59.3758V58.6675C212.105 56.4835 211.338 54.8898 209.803 53.8864C208.269 52.8239 206.38 52.2927 204.137 52.2927C202.071 52.2927 200.064 52.7354 198.116 53.6208C196.227 54.5062 194.604 55.5686 193.246 56.8082L185.898 48.9282Z" fill="#E6007A"/>
<path d="M296.023 55.4801C296.023 60.9695 294.99 65.7211 292.924 69.7349C290.917 73.6896 288.231 76.9656 284.867 79.5627C281.562 82.1008 277.813 83.9897 273.622 85.2292C269.432 86.4097 265.182 87 260.873 87H237.499V24.3144H260.165C264.592 24.3144 268.959 24.8456 273.268 25.9081C277.577 26.9115 281.414 28.6233 284.778 31.0433C288.143 33.4044 290.858 36.5918 292.924 40.6055C294.99 44.6193 296.023 49.5775 296.023 55.4801ZM280.263 55.4801C280.263 51.9385 279.673 49.0168 278.492 46.7147C277.371 44.3537 275.836 42.4944 273.888 41.1368C271.999 39.7202 269.815 38.7167 267.336 38.1264C264.916 37.5362 262.408 37.2411 259.81 37.2411H252.285V73.8962H259.456C262.171 73.8962 264.769 73.6011 267.248 73.0108C269.786 72.3615 271.999 71.3286 273.888 69.912C275.836 68.4953 277.371 66.6065 278.492 64.2455C279.673 61.8844 280.263 58.9626 280.263 55.4801Z" fill="black"/>
<path d="M335.636 59.9071C335.636 57.605 334.899 55.6277 333.423 53.9749C332.006 52.3222 329.852 51.4958 326.96 51.4958C325.543 51.4958 324.244 51.732 323.064 52.2042C321.883 52.6173 320.85 53.2076 319.965 53.9749C319.08 54.7423 318.371 55.6572 317.84 56.7197C317.309 57.7231 317.014 58.7856 316.955 59.9071H335.636ZM349.006 65.485C349.006 66.0753 349.006 66.6655 349.006 67.2558C349.006 67.8461 348.976 68.4068 348.917 68.938H316.955C317.073 70.1776 317.427 71.2991 318.017 72.3025C318.667 73.306 319.463 74.1914 320.408 74.9587C321.411 75.667 322.503 76.2278 323.684 76.6409C324.923 77.0541 326.192 77.2607 327.491 77.2607C329.793 77.2607 331.741 76.8475 333.334 76.0212C334.928 75.1358 336.227 74.0143 337.23 72.6567L347.324 79.0315C345.258 82.0418 342.513 84.3733 339.09 86.0261C335.725 87.6198 331.8 88.4166 327.314 88.4166C324.008 88.4166 320.88 87.9149 317.929 86.9115C314.977 85.849 312.38 84.3438 310.137 82.396C307.953 80.3891 306.212 77.9395 304.913 75.0472C303.674 72.155 303.054 68.8495 303.054 65.1309C303.054 61.5303 303.674 58.2838 304.913 55.3916C306.153 52.4403 307.835 49.9612 309.96 47.9543C312.085 45.8884 314.594 44.2947 317.486 43.1732C320.378 42.0517 323.507 41.4909 326.871 41.4909C330.118 41.4909 333.098 42.0517 335.814 43.1732C338.529 44.2356 340.86 45.7998 342.808 47.8657C344.756 49.9317 346.261 52.4403 347.324 55.3916C348.445 58.3429 349.006 61.7074 349.006 65.485Z" fill="black"/>
<path d="M373.771 37.2411V50.1678H398.03V62.6518H373.771V87H358.807V24.3144H400.067V37.2411H373.771Z" fill="black"/>
<path d="M407.645 87V42.9076H422.165V87H407.645Z" fill="black"/>
<circle cx="415" cy="29" r="8" fill="#E6007A"/>
<circle cx="457" cy="29" r="8" fill="#E6007A"/>
<circle cx="457" cy="70" r="8" fill="#E6007A"/>
<circle cx="499" cy="29" r="8" fill="#E6007A"/>
<circle cx="436" cy="50" r="8" transform="rotate(-90 436 50)" fill="#E6007A"/>
<circle cx="478" cy="50" r="8" transform="rotate(-90 478 50)" fill="#E6007A"/>
<circle cx="436" cy="8" r="8" transform="rotate(-90 436 8)" fill="#E6007A"/>
<circle cx="478" cy="8" r="8" transform="rotate(-90 478 8)" fill="#E6007A"/>
</svg>
